<?xml version="1.0" standalone="no"?><!DOCTYPE svg PUBLIC "-//W3C//DTD SVG 1.1//EN" "http://www.w3.org/Graphics/SVG/1.1/DTD/svg11.dtd"><svg t="1679467536685" class="icon" viewBox="0 0 1024 1024" version="1.1" xmlns="http://www.w3.org/2000/svg" p-id="4316" xmlns:xlink="http://www.w3.org/1999/xlink" width="200" height="200"><path d="M296.96 333.937778H120.035556v83.626666a158.151111 158.151111 0 1 1 63.146666 303.217778 167.253333 167.253333 0 0 1-63.146666-13.084444v131.982222H625.777778v-206.506667h63.715555a91.591111 91.591111 0 0 0 62.577778 24.462223 95.004444 95.004444 0 0 0 0-190.008889 94.435556 94.435556 0 0 0-63.146667 24.462222H625.777778V333.937778H449.422222V270.791111a93.297778 93.297778 0 0 0 18.204445-56.888889 95.004444 95.004444 0 0 0-190.008889 0 90.453333 90.453333 0 0 0 18.773333 56.888889zM56.888889 633.173333h63.146667a94.435556 94.435556 0 0 0 63.146666 24.462223 95.004444 95.004444 0 0 0 0-190.008889 96.711111 96.711111 0 0 0-63.146666 23.893333H56.888889V270.791111h170.666667a164.408889 164.408889 0 0 1-10.24-56.888889 158.151111 158.151111 0 0 1 316.302222 0 151.893333 151.893333 0 0 1-10.24 56.888889h167.822222v146.773333a158.151111 158.151111 0 1 1 63.146667 303.217778 167.253333 167.253333 0 0 1-63.146667-13.084444v195.128889H56.888889v-269.653334z" fill="#8a8a8a" p-id="4317"></path></svg>