<?xml version="1.0" encoding="UTF-8"?>
<svg width="13px" height="17px" viewBox="0 0 13 17" version="1.1" xmlns="http://www.w3.org/2000/svg" xmlns:xlink="http://www.w3.org/1999/xlink">
    <title>ui icon 16px/删除@2x</title>
    <defs>
        <filter id="filter-1">
            <feColorMatrix in="SourceGraphic" type="matrix" values="0 0 0 0 0.607843 0 0 0 0 0.615686 0 0 0 0 0.639216 0 0 0 1.000000 0"></feColorMatrix>
        </filter>
    </defs>
    <g id="页面-1" stroke="none" stroke-width="1" fill="none" fill-rule="evenodd">
        <g id="开发/工作台" transform="translate(-854.000000, -485.000000)">
            <g id="编组-2" transform="translate(613.000000, 434.000000)">
                <g id="编组-3" transform="translate(23.000000, 51.000000)">
                    <g id="编组" transform="translate(216.000000, 0.000000)" filter="url(#filter-1)">
                        <g transform="translate(2.008550, 0.015390)">
                            <path d="M9.80394537,16 L2.10136571,16 C1.69893778,16 1.36570561,15.6868896 1.3383915,15.2822266 L0.677389985,5.40185547 C0.648254932,4.95690918 0.997875569,4.58154297 1.44036419,4.58154297 L10.4649469,4.58154297 C10.9074355,4.58154297 11.2570561,4.95874023 11.2279211,5.40185547 L10.5669196,15.2822266 C10.5396055,15.6868896 10.2063733,16 9.80394537,16 Z M11.9817906,3.14050293 L0.0182094082,3.14050293 C0.00728376328,3.14050293 0,3.13317871 0,3.12219238 L0,1.01831055 C0,1.00732422 0.00728376328,1 0.0182094082,1 L11.9817906,1 C11.9927162,1 12,1.00732422 12,1.01831055 L12,3.12036133 C12,3.13134766 11.9927162,3.14050293 11.9817906,3.14050293 Z" id="形状" fill="#000000" fill-rule="nonzero"></path>
                            <path d="M8.98300765,2 L3.01699235,2 C3.00679694,2 3,1.99396682 3,1.98491704 L3,0.0150829563 C3,0.0060331825 3.00679694,0 3.01699235,0 L8.98300765,0 C8.99320306,0 9,0.0060331825 9,0.0150829563 L9,1.98491704 C9,1.99245852 8.99320306,2 8.98300765,2 L8.98300765,2 Z" id="路径" fill="#000000" fill-rule="nonzero"></path>
                        </g>
                    </g>
                </g>
            </g>
        </g>
    </g>
</svg>