<?xml version="1.0" encoding="UTF-8"?>
<svg width="24px" height="24px" viewBox="0 0 24 24" version="1.1" xmlns="http://www.w3.org/2000/svg" xmlns:xlink="http://www.w3.org/1999/xlink">
    <title>ui icon/语言</title>
    <g id="ui-icon/语言" stroke="none" stroke-width="1" fill="none" fill-rule="evenodd">
        <rect id="bound" x="0" y="0" width="24" height="24"></rect>
        <g id="Message" transform="translate(1.000000, 1.000000)" stroke="#11142D" stroke-linecap="round" stroke-linejoin="round" stroke-width="2">
            <path d="M5.59187042,0 L16.3774994,0 C17.9333389,0.0192802057 19.4125305,0.758354756 20.4730182,2.0437018 C21.5344802,3.3324478 22.0823047,5.0517942 21.9899618,6.80462725 L21.9899618,15.1953728 C22.0823047,16.9482058 21.5344802,18.6675522 20.4730182,19.9562982 C19.4154712,21.2403953 17.9345032,21.979412 16.3774994,22 L5.59187042,22 C2.25139136,22 0,18.9473008 0,15.1953728 L0,6.80462725 C0,3.05269923 2.25139136,0 5.59187042,0 Z" id="Rectangle_511"></path>
        </g>
        <path d="M16.4921875,17.84375 C16.8046875,17.84375 17.0716146,17.7330729 17.2929688,17.5117188 C17.5143229,17.2903646 17.625,17.046875 17.625,16.78125 C17.625,16.5260417 17.5078125,16.1171875 17.2734375,15.5546875 L17.2734375,15.5546875 L14.28125,8.1640625 C14.140625,7.79427083 14.0247396,7.49869792 13.9335938,7.27734375 C13.8424479,7.05598958 13.7304688,6.84895833 13.5976562,6.65625 C13.4648438,6.46354167 13.2903646,6.30598958 13.0742188,6.18359375 C12.8580729,6.06119792 12.5885417,6 12.265625,6 C11.9479167,6 11.6809896,6.06119792 11.4648438,6.18359375 C11.2486979,6.30598958 11.0742188,6.46614583 10.9414062,6.6640625 C10.8085938,6.86197917 10.6835938,7.11067708 10.5664062,7.41015625 C10.4492188,7.70963542 10.3489583,7.96614583 10.265625,8.1796875 L10.265625,8.1796875 L7.3359375,15.6171875 C7.21614583,15.9140625 7.13020833,16.1458333 7.078125,16.3125 C7.02604167,16.4791667 7,16.640625 7,16.796875 C7,17.0677083 7.11197917,17.3098958 7.3359375,17.5234375 C7.55989583,17.7369792 7.81770833,17.84375 8.109375,17.84375 C8.453125,17.84375 8.70052083,17.7434896 8.8515625,17.5429688 C9.00260417,17.3424479 9.18489583,16.9557292 9.3984375,16.3828125 L9.3984375,16.3828125 L9.9453125,14.9140625 L14.6015625,14.9140625 L15.1484375,16.3515625 C15.2213542,16.5286458 15.3085938,16.7330729 15.4101562,16.9648438 C15.5117188,17.1966146 15.6067708,17.3684896 15.6953125,17.4804688 C15.7838542,17.5924479 15.8932292,17.6809896 16.0234375,17.7460938 C16.1536458,17.8111979 16.3098958,17.84375 16.4921875,17.84375 Z M13.9765625,13.171875 L10.5546875,13.171875 L12.25,8.4453125 L13.9765625,13.171875 Z" id="A" fill="#11142D" fill-rule="nonzero"></path>
    </g>
</svg>