<?xml version="1.0" encoding="UTF-8"?>
<svg width="1024px" height="1024px" viewBox="0 0 1024 1024" version="1.1" xmlns="http://www.w3.org/2000/svg" xmlns:xlink="http://www.w3.org/1999/xlink">
    <title>编组 2</title>
    <g id="消息" stroke="none" stroke-width="1" fill="none" fill-rule="evenodd">
        <g id="编组-2">
            <path d="M511.619738,0 C794.599543,0 1024,229.400457 1024,512.380262 C1024,785.912531 809.661331,1009.38332 539.776642,1023.99998 L539.775155,877.299263 C728.747835,862.922486 877.605639,705.035176 877.605639,512.380262 C877.605639,310.25183 713.74817,146.394361 511.619738,146.394361 C318.964824,146.394361 161.077514,295.252165 146.700737,484.224845 L1.55028074e-05,484.223358 C14.6166792,214.338669 238.087469,0 511.619738,0 Z" id="形状结合" fill="#6E6E6E" fill-rule="nonzero"></path>
            <path d="M171.542358,734.305928 C205.723325,734.305928 233.432474,762.015076 233.432474,796.196043 L233.432474,942.481771 C233.432474,976.662738 205.723325,1004.37189 171.542358,1004.37189 C137.361391,1004.37189 109.652242,976.662738 109.652242,942.481771 L109.652242,796.196043 C109.652242,762.015076 137.361391,734.305928 171.542358,734.305928 Z" id="矩形" fill="#009B44" transform="translate(171.542358, 869.338907) rotate(45.000000) translate(-171.542358, -869.338907) "></path>
            <path d="M426,568 C442.568542,568 456,581.431458 456,598 L455.999,1024 L344.808,1024 L344.808044,708.341484 C344.808044,698.400358 336.74917,690.341484 326.808044,690.341484 L0,690.341 L0,568 L426,568 Z" id="形状结合" fill="#059944"></path>
        </g>
    </g>
</svg>