<?xml version="1.0" encoding="UTF-8"?>
<svg width="16px" height="16px" viewBox="0 0 16 16" version="1.1" xmlns="http://www.w3.org/2000/svg" xmlns:xlink="http://www.w3.org/1999/xlink">
    <title>ui icon 16px/设置@2x</title>
    <g id="页面-1" stroke="none" stroke-width="1" fill="none" fill-rule="evenodd">
        <g id="开发/工作台" transform="translate(-781.000000, -485.000000)">
            <g id="编组-2" transform="translate(613.000000, 434.000000)">
                <g id="编组-3" transform="translate(23.000000, 51.000000)">
                    <g id="编组" transform="translate(145.000000, 0.000000)">
                        <rect id="bound" x="0" y="0" width="16" height="16"></rect>
                        <g id="kaifazujian备份" fill="#9B9DA3" fill-rule="nonzero">
                            <path d="M15.1363032,15.9574468 L3.84474734,15.9574468 C3.53390957,15.9574468 3.28956117,15.7130984 3.28956117,15.4005984 L3.28956117,12.0179521 C3.15658245,12.1077128 3.00033245,12.1742021 2.84574468,12.2190824 L2.82413564,12.2190824 C2.62466755,12.2855718 2.40192819,12.3088431 2.20246011,12.3088431 C0.977393617,12.3071809 0,11.306516 0,10.1047207 C0,8.88131649 1.00066489,7.9005984 2.20079787,7.9005984 C2.42353723,7.9005984 2.64461436,7.94547872 2.86735372,8.01196809 C2.88896277,8.01196809 2.91223404,8.03357713 2.93384309,8.03357713 C3.04521277,8.07845745 3.15658245,8.12333777 3.24468085,8.16655585 L3.28956117,8.18816489 L3.28956117,4.09574468 C3.28956117,3.78490691 3.53390957,3.53889628 3.84474734,3.53889628 L7.46675532,3.53889628 L7.40026596,3.40591755 C7.28889628,3.22805851 7.20079787,3.05019947 7.15591755,2.84906915 L7.15591755,2.82579787 C7.08942819,2.62466755 7.06781915,2.40359043 7.06781915,2.20246011 C7.06781915,0.979055851 8.06848404,0 9.26861702,0 C10.490359,0 11.4694149,1.00232713 11.4694149,2.20412234 C11.4694149,2.4268617 11.4245346,2.64960106 11.3580452,2.87234043 C11.3580452,2.89394947 11.3364362,2.91722074 11.3364362,2.93882979 C11.2915559,3.05019947 11.2483378,3.16156915 11.2034574,3.24966755 L11.0920878,3.51728723 L15.1379654,3.51728723 C15.4488032,3.51728723 15.6931516,3.76163564 15.6931516,4.07413564 L15.6931516,8.05917553 C15.6931516,8.23703457 15.6050532,8.41489362 15.4488032,8.5262633 C15.2925532,8.63763298 15.0930851,8.63763298 14.9152261,8.57114362 L13.9594415,8.14893617 C13.9378324,8.14893617 13.9378324,8.12732713 13.9145612,8.12732713 C13.8696809,8.10571809 13.8031915,8.06083777 13.7367021,8.03756649 L13.7134309,8.03756649 C13.6020612,7.99268617 13.4906915,7.99268617 13.3793218,7.99268617 C12.7792553,7.99268617 11.2905585,8.40913284 11.2905585,10.0831117 C11.2905585,11.7570906 12.7792553,12.1735372 13.3793218,12.1735372 C13.4906915,12.1735372 13.6020612,12.1519282 13.6901596,12.1286569 C13.8015293,12.1070479 13.8896277,12.0388963 13.9793883,11.9956782 C14.0009973,11.9740691 14.0242686,11.9740691 14.0458777,11.9507979 L14.8902926,11.5501995 C15.0681516,11.4604388 15.2676197,11.4837101 15.4238697,11.5718085 C15.5801197,11.6599069 15.6898271,11.8610372 15.6898271,12.0388963 L15.6898271,15.4005984 C15.6914894,15.7130984 15.447141,15.9574468 15.1363032,15.9574468 Z" id="形状"></path>
                        </g>
                    </g>
                </g>
            </g>
        </g>
    </g>
</svg>